<svg xmlns="http://www.w3.org/2000/svg" xmlns:xlink="http://www.w3.org/1999/xlink" aria-hidden="true" role="img" className="iconify iconify--logos" width="35.93" height="32" preserveAspectRatio="xMidYMid meet" viewBox="0 0 256 228"><path fill="#00D8FF" d="M210.483 73.824a171.49 171.49 0 0 0-8.24-2.597c.465-1.9.893-3.777 1.273-5.621c9.253-45.424-6.076-73.434-25.29-73.434c-19.214 0-34.542 28.01-25.29 73.434c.38 1.844.808 3.721 1.273 5.621a171.491 171.491 0 0 0-8.24 2.597c-8.8 2.757-17.35 6.31-25.617 10.54c-8.266-4.23-16.817-7.783-25.617-10.54a171.49 171.49 0 0 0-8.24-2.597c.465-1.9.893-3.777 1.273-5.621c9.253-45.424-6.076-73.434-25.29-73.434c-19.214 0-34.542 28.01-25.29 73.434c.38 1.844.808 3.721 1.273 5.621a171.491 171.491 0 0 0-8.24 2.597c-42.828 13.4-67.021 52.823-67.021 88.626c0 61.758 63.038 111.836 140.6 111.836s140.6-50.078 140.6-111.836c0-35.803-24.193-75.226-67.021-88.626ZM128 200.089c-35.21 0-63.766-28.555-63.766-63.766c0-35.21 28.556-63.766 63.766-63.766s63.766 28.556 63.766 63.766c0 35.211-28.556 63.766-63.766 63.766Z" className="color00D8FF svgShape"></path><circle cx="128" cy="136.323" r="23.922" fill="#00D8FF" className="color00D8FF svgShape"></circle></svg>